<?xml version="1.0" standalone="no"?><!DOCTYPE svg PUBLIC "-//W3C//DTD SVG 1.1//EN" "http://www.w3.org/Graphics/SVG/1.1/DTD/svg11.dtd"><svg width="206.640625" height="200" viewBox="0 0 206.640625 200" version="1.1" xmlns="http://www.w3.org/2000/svg" xmlns:xlink="http://www.w3.org/1999/xlink"><defs><style type="text/css"><![CDATA[
@font-face { font-family: ifont; src: url("//at.alicdn.com/t/font_1442373896_4754455.eot?#iefix") format("embedded-opentype"), url("//at.alicdn.com/t/font_1442373896_4754455.woff") format("woff"), url("//at.alicdn.com/t/font_1442373896_4754455.ttf") format("truetype"), url("//at.alicdn.com/t/font_1442373896_4754455.svg#ifont") format("svg"); }

]]></style></defs><g class="transform-group"><g transform="scale(0.1953125, 0.1953125)"><path d="M1057.810101 908.833616c0 14.515717-2.52897 28.033293-7.563636 40.621253-5.042424 12.554343-12.229818 23.620525-21.545374 33.179152-9.323313 9.543111-20.195556 16.983919-32.627071 22.288808-12.422465 5.321697-26.017616 8.000646-40.77899 8.018747L109.518869 1012.941576c-14.760081 0-28.732768-2.660848-41.933576-8.018747-13.194343-5.339798-24.844929-12.781899-34.96598-22.288808-10.121051-9.52501-18.077737-20.591192-23.89204-33.179152-5.822061-12.606061-8.727273-26.141737-8.727273-40.621253L0 337.792c0-29.01204 10.286545-53.621657 30.859636-73.835313 20.580848-20.213657 45.637818-30.316606 75.15798-30.316606l845.776162 0c29.520162 0 54.575838 10.102949 75.147636 30.316606 20.582141 20.213657 30.868687 44.823273 30.868687 73.835313l0 155.629899L793.362101 493.421899c-29.529212 0-54.583596 9.919354-75.156687 29.764525-20.582141 19.847758-30.868687 44.272485-30.868687 73.248323 0.770586 19.849051 5.042424 37.400566 12.824566 52.659717 6.216404 12.965495 16.502949 24.784162 30.868687 35.481859 14.356687 10.696404 35.141818 16.038788 62.332121 16.038788l264.448 0L1057.810101 908.903434 1057.810101 908.833616zM899.38101 181.015273 370.474667 181.015273c41.951677-21.360485 81.565737-41.968485 118.843475-61.816242 32.628364-16.78998 64.862384-33.581253 96.703354-50.346667 31.830626-16.773172 56.676848-29.747717 74.552889-38.931394 27.191596-14.506667 51.459879-21.176889 72.803556-20.031354 21.352727 1.146828 39.403313 4.770909 54.164687 10.873535 17.097697 8.40404 31.857778 19.461172 44.288 33.186909L899.38101 181.015273zM740.940283 596.43604c0-14.505374 5.051475-26.718384 15.137616-36.619636 10.093899-9.90901 22.516364-14.873859 37.284202-14.873859 14.761374 0 27.183838 4.964848 37.267394 14.873859 10.095192 9.901253 15.137616 22.114263 15.137616 36.619636 0 14.497616-5.042424 26.903273-15.137616 37.198869-10.083556 10.304646-22.50602 15.460848-37.267394 15.460848-14.767838 0-27.190303-5.156202-37.284202-15.460848C745.991758 623.33802 740.940283 610.933657 740.940283 596.43604L740.940283 596.43604zM740.940283 596.43604" fill="#a9b7b7"></path></g></g></svg>