<?xml version="1.0" standalone="no"?><!DOCTYPE svg PUBLIC "-//W3C//DTD SVG 1.1//EN" "http://www.w3.org/Graphics/SVG/1.1/DTD/svg11.dtd"><svg width="200" height="200" viewBox="0 0 200 200" version="1.1" xmlns="http://www.w3.org/2000/svg" xmlns:xlink="http://www.w3.org/1999/xlink"><defs><style type="text/css"><![CDATA[
@font-face { font-family: ifont; src: url("//at.alicdn.com/t/font_1442373896_4754455.eot?#iefix") format("embedded-opentype"), url("//at.alicdn.com/t/font_1442373896_4754455.woff") format("woff"), url("//at.alicdn.com/t/font_1442373896_4754455.ttf") format("truetype"), url("//at.alicdn.com/t/font_1442373896_4754455.svg#ifont") format("svg"); }

]]></style></defs><g class="transform-group"><g transform="scale(0.1953125, 0.1953125)"><path d="M930.14696 465.322911l0 34.970466c0 164.801417-133.571135 275.944749-291.684222 275.944749L525.306562 776.238127l-43.215244 26.473955c20.757766 6.810103 43.012629 10.425444 65.906036 10.425444l97.717555 0c3.832282 0 7.611352 0.966001 10.977006 2.792603l156.630317 97.884354 0-70.838372c0-11.030218 7.967462-20.458961 18.889209-22.356171 99.437733-17.312294 172.480306-90.358961 172.480306-186.104605l0-24.998347C1004.691747 551.574321 974.91149 499.694743 930.14696 465.322911zM622.104165 143.142118 305.819662 143.142118c-160.832012 0-291.685245 128.549771-291.685245 286.556435l0 52.41886c0 136.546909 89.424682 246.242264 224.913493 279.453666l0 111.813598c0 9.880021 5.244444 19.026332 13.796214 24.051789 4.40738 2.608407 9.361205 3.90596 14.3181 3.90596 4.653997 0 9.309016-1.14815 13.522991-3.442402l228.261751-139.838885 113.157199 0c158.114111 0 291.684222-111.14231 291.684222-275.943726l0-52.41886C913.788387 271.691889 782.937201 143.142118 622.104165 143.142118zM293.942147 438.496939c-23.290449 0-42.171472-18.856463-42.171472-42.123376 0-23.266913 18.881023-42.123376 42.171472-42.123376 23.290449 0 42.170448 18.85544 42.170448 42.123376C336.112596 419.640476 317.231573 438.496939 293.942147 438.496939zM462.625988 438.496939c-23.290449 0-42.171472-18.856463-42.171472-42.123376 0-23.266913 18.881023-42.123376 42.171472-42.123376 23.289426 0 42.170448 18.85544 42.170448 42.123376C504.797459 419.640476 485.916437 438.496939 462.625988 438.496939zM631.310851 438.496939c-23.290449 0-42.171472-18.856463-42.171472-42.123376 0-23.266913 18.881023-42.123376 42.171472-42.123376 23.291472 0 42.171472 18.85544 42.171472 42.123376C673.482323 419.640476 654.602324 438.496939 631.310851 438.496939z" fill="#a9b7b7"></path></g></g></svg>