<?xml version="1.0" standalone="no"?><!DOCTYPE svg PUBLIC "-//W3C//DTD SVG 1.1//EN" "http://www.w3.org/Graphics/SVG/1.1/DTD/svg11.dtd"><svg class="icon" style="" viewBox="0 0 1024 1024" version="1.1" xmlns="http://www.w3.org/2000/svg" p-id="1467" xmlns:xlink="http://www.w3.org/1999/xlink" width="200" height="200"><defs><style type="text/css"><![CDATA[

]]></style></defs><path d="M126.898463 682.80515c48.316691 78.085181 202.368107 135.159855 385.100121 135.159855 182.617759 0 336.784413-57.074674 385.042895-135.159855 10.24744-16.544692 15.685904-7.671273 15.685904 0.51543 0 8.243733 0 114.608142 0 114.608142 0 111.002099-179.4123 226.068642-400.728996 226.068642S111.269588 908.930822 111.269588 797.928723c0 0 0-106.365393 0-114.608142C111.269588 675.133877 116.765082 666.260655 126.898463 682.80515zM126.326003 389.986854c47.457904 69.03969 202.196034 119.64622 385.672581 119.64622s338.215661-50.60653 385.672581-119.64622c9.846069-14.254657 15.056415-6.526354 15.056415-0.05703s0 134.873724 0 134.873724c0 100.926928-179.4123 182.674985-400.728996 182.674985s-400.728996-81.74904-400.728996-182.674985c0 0 0-128.405382 0-134.873724C111.269588 383.461483 116.535784 375.732 126.326003 389.986854zM511.998584 16.45018c221.316696 0 400.728996 67.437353 400.728996 150.673687l0 72.074257c0 88.274411-179.4123 159.833237-400.728996 159.833237S111.269588 327.472535 111.269588 239.198124L111.269588 167.180897c0-83.294347 179.4123-150.7317 400.728996-150.7317L511.998584 16.45018z" p-id="1468" fill="#cc9933"></path></svg>