<?xml version="1.0" standalone="no"?><!DOCTYPE svg PUBLIC "-//W3C//DTD SVG 1.1//EN" "http://www.w3.org/Graphics/SVG/1.1/DTD/svg11.dtd"><svg class="icon" style="" viewBox="0 0 1024 1024" version="1.1" xmlns="http://www.w3.org/2000/svg" p-id="2840" xmlns:xlink="http://www.w3.org/1999/xlink" width="200" height="200"><defs><style type="text/css"><![CDATA[

]]></style></defs><path d="M831.558372 1007.02485c-10.30647 0-20.52624-2.734665-29.503309-7.929443l-290.05145-168.313723-290.0081 168.288436c-20.35284 11.675609-47.042009 9.883807-65.393523-4.230241-18.983701-14.627023-27.198532-38.960841-20.909165-62.095308l84.337487-310.985903L28.838609 445.085613c-17.936076-16.5272-23.777492-41.933931-14.861836-64.68186 8.897594-22.711804 30.406435-37.382177 54.783603-37.382177l256.885063 0 132.77031-293.320765c9.089057-20.168602 29.640584-32.725661 53.587864-32.725661s44.477133 12.553447 53.584252 32.747336l132.748635 293.295477 256.903126 0c24.420518 0 45.932971 14.713723 54.783603 37.421915 8.897594 22.690129 3.081465 48.089635-14.879898 64.663797l-191.191703 176.647767 84.359162 311.003965c6.26408 23.116404-1.947139 47.450222-20.912778 62.080858C857.138503 1002.707909 844.429718 1007.02485 831.558372 1007.02485L831.558372 1007.02485zM512.003613 780.148846l311.986566 181.02612c5.111691 2.955027 11.971834 2.550427 16.725887-1.069301 4.833529-3.713653 6.925168-9.95967 5.342891-15.862499l-91.327679-336.645509 210.695604-194.674155c4.609553-4.255528 6.094292-10.71107 3.803965-16.530812-2.218077-5.729429-7.846356-9.580357-13.983998-9.580357l-285.131221 0-144.424243-319.063459c-2.330064-5.165879-8.832569-6.982968-13.68416-6.982968-4.876879 0-11.375771 1.813476-13.687773 6.961293l-144.420631 319.085134L68.760375 386.812333c-6.242405 0-11.718959 3.764228-13.998448 9.580357-2.290327 5.819742-0.791138 12.275284 3.78229 16.509137l210.717279 194.69583-91.313229 336.623834c-1.600339 5.928117 0.516588 12.170521 5.371791 15.884174 4.707091 3.63779 11.527496 4.064065 16.783687 1.029563L512.003613 780.148846 512.003613 780.148846zM512.003613 780.148846" p-id="2841" fill="#707070"></path></svg>