<?xml version="1.0" standalone="no"?><!DOCTYPE svg PUBLIC "-//W3C//DTD SVG 1.1//EN" "http://www.w3.org/Graphics/SVG/1.1/DTD/svg11.dtd"><svg class="icon" style="" viewBox="0 0 1024 1024" version="1.1" xmlns="http://www.w3.org/2000/svg" p-id="2486" xmlns:xlink="http://www.w3.org/1999/xlink" width="200" height="200"><defs><style type="text/css"><![CDATA[

]]></style></defs><path d="M782.658861 336.119247c0-150.181441-122.203226-272.385691-272.423553-272.385691-150.225443 0-272.428669 122.160247-272.428669 272.385691 0 106.054431 61.038168 197.924815 149.69844 242.921635-163.355485 52.325739-298.284547 200.675462-298.284547 351.466794 0 13.658068 11.105942 24.744567 24.769127 24.744567 13.662161 0 24.76708-11.086499 24.76708-24.744567 0-159.481248 187.472765-321.965899 371.47857-321.965899C660.411633 608.541777 782.658861 486.382553 782.658861 336.119247L782.658861 336.119247 782.658861 336.119247 782.658861 336.119247zM510.235308 559.009663c-122.880655 0-222.89144-99.992365-222.89144-222.890416 0-122.861212 100.010785-222.89144 222.89144-222.89144 122.879632 0 222.886323 100.030228 222.886323 222.89144C733.126748 459.017298 633.11494 559.009663 510.235308 559.009663L510.235308 559.009663 510.235308 559.009663 510.235308 559.009663zM510.235308 559.009663" p-id="2487" fill="#707070"></path><path d="M947.25664 780.474614 814.12962 661.046594c-10.648524-9.973142-27.367301-9.425673-37.338397 1.224898-9.972119 10.646478-9.428743 27.365254 1.223874 37.341466l88.635713 79.517031L617.333512 779.12999c-14.5903 0-26.418696 11.82635-26.418696 26.417673 0 14.5903 11.82942 26.418696 26.418696 26.418696l249.312182 0-88.630596 79.513962c-10.652618 9.976212-11.195993 26.692942-1.223874 37.343513 9.971096 10.648524 26.689872 11.195993 37.338397 1.221828l133.12702-119.42495C954.342012 823.986617 969.688535 802.903439 947.25664 780.474614z" p-id="2488" fill="#707070"></path></svg>