<?xml version="1.0" standalone="no"?><!DOCTYPE svg PUBLIC "-//W3C//DTD SVG 1.1//EN" "http://www.w3.org/Graphics/SVG/1.1/DTD/svg11.dtd"><svg class="icon" style="" viewBox="0 0 1024 1024" version="1.1" xmlns="http://www.w3.org/2000/svg" p-id="2062" xmlns:xlink="http://www.w3.org/1999/xlink" width="200" height="200"><defs><style type="text/css"><![CDATA[

]]></style></defs><path d="M891.258 211.518 401.184 211.518c-73.184 0-132.74 59.556-132.74 132.742l0 31.518L132.74 375.778c-73.186 0-132.74 59.556-132.74 132.74l0 171.224c0 73.184 59.554 132.738 132.74 132.738l490.074 0c73.186 0 132.74-59.554 132.74-132.738l0-31.48 135.704 0c73.186 0 132.742-59.558 132.742-132.742L1024 344.26C1024 271.076 964.444 211.518 891.258 211.518zM641.778 679.742c0 10.372-8.668 18.96-18.962 18.96L132.74 698.702c-10.296 0-18.962-8.59-18.962-18.96l0-171.224c0-10.294 8.666-18.962 18.962-18.962l135.704 0 0 25.964c0 73.184 59.556 132.742 132.74 132.742l240.594 0L641.778 679.742zM641.778 534.48 401.184 534.48c-10.294 0-18.962-8.664-18.962-18.96l0-25.964 240.594 0c10.294 0 18.962 8.668 18.962 18.962L641.778 534.48zM910.22 515.52c0 10.296-8.666 18.96-18.962 18.96l-135.704 0 0-25.962c0-73.184-59.554-132.74-132.74-132.74L382.22 375.778 382.22 344.26c0-10.296 8.668-18.962 18.962-18.962l490.074 0c10.296 0 18.962 8.666 18.962 18.962L910.218 515.52z" p-id="2063" fill="#707070"></path></svg>