<svg id="Layer_1" data-name="Layer 1" xmlns="http://www.w3.org/2000/svg" xmlns:xlink="http://www.w3.org/1999/xlink" width="230" height="230" viewBox="0 0 230 140">
  <defs>
    <style>
      .cls-1, .cls-5 {
        fill: none;
      }

      .cls-2 {
        fill: #9bdaf3;
      }

      .cls-3 {
        fill: #00a0dc;
      }

      .cls-4 {
        clip-path: url(#clip-path);
      }

      .cls-5 {
        stroke: #00a0dc;
        stroke-miterlimit: 10;
        stroke-width: 3px;
      }

      .cls-6 {
        fill: #005e93;
      }
    </style>
    <clipPath id="clip-path">
      <rect class="cls-1" x="48.33" y="46.03" width="46" height="48" transform="matrix(0.97, -0.26, 0.26, 0.97, -15.7, 20.85)"/>
    </clipPath>
  </defs>
  <title>Publishing-Empty-State</title>
  <path class="cls-2" d="M141.67,40.9L131.53,78.74a19.88,19.88,0,0,1,3.41,10l38.74,10.38L186.1,52.81Z"/>
  <path class="cls-2" d="M97.77,79.87l-10.44-39L42.9,52.81,55.32,99.17,95.07,88.52A19.85,19.85,0,0,1,97.77,79.87Z"/>
  <circle class="cls-3" cx="77.95" cy="59.98" r="4" transform="translate(-12.87 22.22) rotate(-15)"/>
  <g class="cls-4">
    <path class="cls-5" d="M49.25,84.23l10-14.85A2,2,0,0,1,62,68.8l16.6,10.27a2,2,0,0,0,2.7-.57l3-4.44a2,2,0,0,1,2.72-.56l13.33,8.42"/>
  </g>
  <path class="cls-3" d="M158.08,73.21a5,5,0,0,0,2.29,4l7.28,4.69a5,5,0,0,1,2,5.38L169,89.6l-30.91-8.28L138.7,79a5,5,0,0,1,4.38-3.69l8.65-.42a5,5,0,0,0,4-2.35M161.55,71L153.82,69l-0.4,1.49a2,2,0,0,1-1.84,1.48l-8.71.42a8,8,0,0,0-7.08,5.9l-1.39,5.18,36.71,9.84,1.39-5.18a8,8,0,0,0-3.18-8.65L162,74.72a2,2,0,0,1-.85-2.2l0.4-1.49h0Z"/>
  <path class="cls-3" d="M160.26,54.34h0a6,6,0,0,1,1.56.21,6,6,0,0,1,4.24,7.35l-0.47,1.76a9,9,0,0,1-1.37,2.9l-1.29,1.8a3,3,0,0,1-3.22,1.15l-3.56-1A3,3,0,0,1,154,66l-0.21-2.2a9,9,0,0,1,.26-3.2l0.47-1.76a6,6,0,0,1,5.79-4.45m0-3A9,9,0,0,0,151.58,58l-0.47,1.76a12,12,0,0,0-.35,4.27l0.21,2.2a6,6,0,0,0,4.42,5.21l3.56,1a6,6,0,0,0,6.43-2.31l1.29-1.8a12,12,0,0,0,1.83-3.87L169,62.67a9,9,0,0,0-6.36-11h0a9,9,0,0,0-2.34-.31h0Z"/>
  <path class="cls-6" d="M115,73A17,17,0,1,1,98,90a17,17,0,0,1,17-17m0-3a20,20,0,1,0,20,20,20,20,0,0,0-20-20h0Z"/>
  <path class="cls-6" d="M191.52,48l-52.16-14a2,2,0,0,0-2.45,1.41L126.65,73.77a20.1,20.1,0,0,1,2.53,2.14l10.36-38.68,50.23,13.46-14,52.16-40.89-11a19.86,19.86,0,0,1-.52,3L176,106a2,2,0,0,0,2.45-1.41l14.49-54.09A2,2,0,0,0,191.52,48Z"/>
  <path class="cls-6" d="M95.08,91.62L53.2,102.84l-14-52.16L89.45,37.23,100,76.75a20.09,20.09,0,0,1,2.47-2.36L92.09,35.48a2,2,0,0,0-2.45-1.41L37.48,48a2,2,0,0,0-1.41,2.45l14.49,54.09A2,2,0,0,0,53,106L95.55,94.6A19.92,19.92,0,0,1,95.08,91.62Z"/>
  <polygon class="cls-3" points="124 88 117 88 117 81 113 81 113 88 106 88 106 92 113 92 113 99 117 99 117 92 124 92 124 88"/>
</svg>