<?xml version="1.0" standalone="no"?><!DOCTYPE svg PUBLIC "-//W3C//DTD SVG 1.1//EN" "http://www.w3.org/Graphics/SVG/1.1/DTD/svg11.dtd"><svg width="200" height="200" viewBox="0 0 200 200" version="1.1" xmlns="http://www.w3.org/2000/svg" xmlns:xlink="http://www.w3.org/1999/xlink"><defs><style type="text/css"><![CDATA[
@font-face { font-family: ifont; src: url("//at.alicdn.com/t/font_1442373896_4754455.eot?#iefix") format("embedded-opentype"), url("//at.alicdn.com/t/font_1442373896_4754455.woff") format("woff"), url("//at.alicdn.com/t/font_1442373896_4754455.ttf") format("truetype"), url("//at.alicdn.com/t/font_1442373896_4754455.svg#ifont") format("svg"); }

]]></style></defs><g class="transform-group"><g transform="scale(0.1953125, 0.1953125)"><path d="M512 213.324445c-164.942461 0-298.654223 133.711762-298.654223 298.654223 0 164.942461 133.711762 298.654223 298.654223 298.654223s298.654223-133.711762 298.654223-298.654223C810.654223 347.036207 676.942461 213.324445 512 213.324445zM512 682.638223c-94.24674 0-170.659556-76.412816-170.659556-170.659556 0-94.24674 76.412816-170.659556 170.659556-170.659556s170.659556 76.412816 170.659556 170.659556C682.659556 606.225407 606.24674 682.638223 512 682.638223zM990.145411 347.036207c0 0 8.319653-3.626516-40.190325-89.510937-48.467314-85.884421-55.720345-80.465981-55.720345-80.465981-53.331111 17.620599-91.772176 26.025582-115.536519 30.164076-39.081038-34.217241-84.689805-60.968126-134.863714-78.247406-8.234324-22.484396-20.777801-61.650765-32.8093-119.931003 0 0 0.981292-9.044956-96.465314-9.044956C416.942627 0 418.00925 9.044956 418.00925 9.044956 406.4044 65.319945 394.287571 104.016999 386.053248 126.88538 336.305987 143.140702 290.782551 168.654306 251.573518 201.548935 227.937169 196.898463 189.752094 187.640182 136.890296 168.95296c0 0-7.167701-5.5891-57.384276 79.271364C29.204116 332.999458 37.395775 336.753969 37.395775 336.753969c38.953044 36.606475 64.381317 65.36261 79.868672 84.519145C110.56606 450.455898 106.683555 480.747969 106.683555 511.978668c0 28.286821 2.943877 55.84834 8.447648 82.513895-15.914004 18.815216-41.854256 46.931378-81.276613 82.428565 0 0-8.276988 3.626516 40.23299 89.468272 48.467314 85.841757 55.67768 80.508645 55.67768 80.508645 53.373776-17.620599 91.814841-26.068247 115.579184-30.206741 39.081038 34.259906 84.732469 61.010791 134.949044 78.290071 8.276988 22.527061 20.777801 61.6081 32.766635 119.931003 0 0-1.066622 9.087621 96.507979 9.087621 97.446606 0 96.465314-9.087621 96.465314-9.087621 11.60485-56.232324 23.679013-94.972043 31.956002-117.797758 49.747261-16.255323 95.270697-41.768926 134.437065-74.663556 23.679013 4.650473 61.864089 13.908754 114.683222 32.63864 0 0 7.125036 5.546436 57.51227-79.271364 50.216574-84.860464 42.024916-88.572309 42.024916-88.572309-38.995709-36.606475-64.381317-65.405275-79.868672-84.519145C913.43394 573.458773 917.316445 543.209366 917.316445 511.978668c0-28.286821-2.943877-55.84834-8.447648-82.513895C924.782801 410.692221 950.680388 382.576059 990.145411 347.036207zM512 853.297779c-188.493479 0-341.319112-152.825632-341.319112-341.319112s152.825632-341.319112 341.319112-341.319112 341.319112 152.825632 341.319112 341.319112S700.493479 853.297779 512 853.297779z" fill="#a9b7b7"></path></g></g></svg>