<?xml version="1.0" standalone="no"?><!DOCTYPE svg PUBLIC "-//W3C//DTD SVG 1.1//EN" "http://www.w3.org/Graphics/SVG/1.1/DTD/svg11.dtd"><svg width="229.6875" height="200" viewBox="0 0 229.6875 200" version="1.1" xmlns="http://www.w3.org/2000/svg" xmlns:xlink="http://www.w3.org/1999/xlink"><defs><style type="text/css"><![CDATA[
@font-face { font-family: ifont; src: url("//at.alicdn.com/t/font_1442373896_4754455.eot?#iefix") format("embedded-opentype"), url("//at.alicdn.com/t/font_1442373896_4754455.woff") format("woff"), url("//at.alicdn.com/t/font_1442373896_4754455.ttf") format("truetype"), url("//at.alicdn.com/t/font_1442373896_4754455.svg#ifont") format("svg"); }

]]></style></defs><g class="transform-group"><g transform="scale(0.1953125, 0.1953125)"><path d="M0 913.521019C0 768.077369 76.067992 640.359538 190.385683 567.840237 251.178743 613.625173 326.80247 640.764207 408.769233 640.764207 490.808358 640.764207 566.498797 613.57549 627.314574 567.718116 741.642202 640.149807 817.538427 767.806199 817.538427 913.521019 817.538427 913.521019 817.405004 1015.940361 817.145287 1021.923176L0.387489 1021.923176C0.133423 1015.940361 0 913.521019 0 913.521019L0 913.521019ZM948.926502 510.961588 802.940549 510.961588 802.940549 583.957997 948.926502 583.957997 948.926502 729.943988 1021.923063 729.943988 1021.923063 583.957997 1167.914705 583.957997 1167.914705 510.961588 1021.923063 510.961588 1021.923063 364.969908 948.926502 364.969908 948.926502 510.961588 948.926502 510.961588ZM408.769233 545.025517C559.274363 545.025517 681.282029 423.017813 681.282029 272.512948 681.282029 122.007704 559.274363 0 408.769233 0 258.264064 0 136.256398 122.007704 136.256398 272.512948 136.256398 423.017813 258.264064 545.025517 408.769233 545.025517L408.769233 545.025517Z" fill="#a9b7b7"></path></g></g></svg>