<?xml version="1.0" standalone="no"?><!DOCTYPE svg PUBLIC "-//W3C//DTD SVG 1.1//EN" "http://www.w3.org/Graphics/SVG/1.1/DTD/svg11.dtd"><svg width="200" height="200" viewBox="0 0 200 200" version="1.1" xmlns="http://www.w3.org/2000/svg" xmlns:xlink="http://www.w3.org/1999/xlink"><defs><style type="text/css"><![CDATA[
@font-face { font-family: ifont; src: url("//at.alicdn.com/t/font_1442373896_4754455.eot?#iefix") format("embedded-opentype"), url("//at.alicdn.com/t/font_1442373896_4754455.woff") format("woff"), url("//at.alicdn.com/t/font_1442373896_4754455.ttf") format("truetype"), url("//at.alicdn.com/t/font_1442373896_4754455.svg#ifont") format("svg"); }

]]></style></defs><g class="transform-group"><g transform="scale(0.1953125, 0.1953125)"><path d="M582.4 531.2c64-25.6 108.8-89.6 108.8-160C691.2 268.8 608 192 512 192S332.8 268.8 332.8 371.2c0 70.4 44.8 134.4 108.8 160C300.8 563.2 198.4 684.8 198.4 832c0 6.4 0 51.2 0 51.2 0 6.4 6.4 12.8 12.8 12.8l608 0c6.4 0 12.8-6.4 12.8-12.8 0 0 0-44.8 0-51.2C825.6 684.8 723.2 563.2 582.4 531.2zM377.6 371.2c0-76.8 64-134.4 134.4-134.4s134.4 57.6 134.4 134.4S588.8 505.6 512 505.6 377.6 441.6 377.6 371.2zM780.8 851.2 243.2 851.2c0-6.4 0-12.8 0-19.2 0-147.2 121.6-268.8 268.8-268.8s268.8 121.6 268.8 268.8C780.8 838.4 780.8 844.8 780.8 851.2zM243.2 563.2C300.8 556.8 294.4 512 268.8 499.2c-38.4-19.2-64-51.2-64-96 0-51.2 38.4-96 83.2-96 25.6-12.8 12.8-44.8 0-44.8-70.4 0-121.6 64-121.6 134.4 0 51.2 25.6 96 64 115.2C134.4 537.6 64 627.2 64 736c0 19.2 0 44.8 6.4 64 12.8 19.2 38.4 6.4 44.8-12.8-6.4-19.2-6.4-32-6.4-51.2C108.8 640 172.8 563.2 243.2 563.2zM800 524.8c38.4-25.6 64-70.4 64-115.2 0-76.8-57.6-134.4-121.6-134.4-12.8 0-25.6 32 0 44.8 44.8 0 83.2 44.8 83.2 96 0 44.8-25.6 76.8-64 96-32 12.8-38.4 57.6 19.2 57.6 76.8 0 140.8 83.2 140.8 172.8 0 19.2 0 38.4-6.4 51.2 6.4 19.2 32 32 44.8 12.8 6.4-19.2 6.4-44.8 6.4-64C960 627.2 889.6 537.6 800 524.8z" fill="#a9b7b7"></path></g></g></svg>