<?xml version="1.0" standalone="no"?><!DOCTYPE svg PUBLIC "-//W3C//DTD SVG 1.1//EN" "http://www.w3.org/Graphics/SVG/1.1/DTD/svg11.dtd"><svg class="icon" style="" viewBox="0 0 1024 1024" version="1.1" xmlns="http://www.w3.org/2000/svg" p-id="1286" xmlns:xlink="http://www.w3.org/1999/xlink" width="200" height="200"><defs><style type="text/css"><![CDATA[

]]></style></defs><path d="M902.230656 79.950913l-780.879843 0c-63.977104 0-115.906823 51.876508-115.906823 115.787096l0 516.527107c0 63.914682 51.928696 115.789143 115.906823 115.789143l262.623349 0 104.697527 104.58087c7.474228 7.471159 17.443277 11.412934 27.417443 11.412934 9.969049 0 19.72832-3.734044 27.417443-11.412934l104.687294-104.58087 254.458389 0c63.971987 0 115.903753-51.874461 115.903753-115.789143l0-516.527107C1018.141572 131.827421 966.009238 79.950913 902.230656 79.950913zM224.155223 516.285606c-33.851992 0-61.293995-27.442002-61.293995-61.293995 0-33.851992 27.442002-61.293995 61.293995-61.293995s61.293995 27.442002 61.293995 61.293995C285.449217 488.843604 258.007215 516.285606 224.155223 516.285606zM513.400906 516.285606c-33.851992 0-61.293995-27.442002-61.293995-61.293995 0-33.851992 27.442002-61.293995 61.293995-61.293995s61.293995 27.442002 61.293995 61.293995C574.694901 488.843604 547.252899 516.285606 513.400906 516.285606zM795.435351 516.285606c-33.851992 0-61.293995-27.442002-61.293995-61.293995 0-33.851992 27.442002-61.293995 61.293995-61.293995s61.293995 27.442002 61.293995 61.293995C856.729346 488.843604 829.287343 516.285606 795.435351 516.285606z" p-id="1287" fill="#707070"></path></svg>