<?xml version="1.0" standalone="no"?><!DOCTYPE svg PUBLIC "-//W3C//DTD SVG 1.1//EN" "http://www.w3.org/Graphics/SVG/1.1/DTD/svg11.dtd"><svg width="200" height="200" viewBox="0 0 200 200" version="1.1" xmlns="http://www.w3.org/2000/svg" xmlns:xlink="http://www.w3.org/1999/xlink"><defs><style type="text/css"><![CDATA[
@font-face { font-family: ifont; src: url("//at.alicdn.com/t/font_1442373896_4754455.eot?#iefix") format("embedded-opentype"), url("//at.alicdn.com/t/font_1442373896_4754455.woff") format("woff"), url("//at.alicdn.com/t/font_1442373896_4754455.ttf") format("truetype"), url("//at.alicdn.com/t/font_1442373896_4754455.svg#ifont") format("svg"); }

]]></style></defs><g class="transform-group"><g transform="scale(0.1953125, 0.1953125)"><path d="M965.385021 503.293711c-24.579815-25.504884-388.027477-401.893276-400.800385-414.960897-12.856819-14.538111-31.638581-23.73968-52.563146-23.73968-21.26021 0-40.336684 9.496282-53.193503 24.411993-81.471546 81.512479-397.481803 404.834258-397.481803 411.809113 0 0 0 0.041956 0 0.083911-10.714016 8.613168-17.60496 21.806655-17.60496 36.5965 0 25.924439 21.008476 46.89096 46.89096 46.89096 0 0.041956 0.041956 0.083911 0.041956 0.083911l46.849004 0c0 0 0.041956 223.614917 0.041956 261.850753 0 54.831816 44.99989 117.059066 117.059066 112.857371l515.843538 0c64.748676 4.201695 117.185956-50.54621 117.185956-112.857371 0-16.513092-1.260713-261.850753-1.260713-261.850753s44.243667 0 48.991808 0c0-0.041956 0.041956-0.083911 0.041956-0.125867 24.958438-1.091868 44.832068-21.638833 44.832068-46.849004C980.258777 524.008498 974.544635 511.823991 965.385021 503.293711zM809.627584 529.386996c0 0.083911-0.420579 262.396175-0.420579 273.993305 0 43.824111-36.849256 82.353636-82.395592 82.353636l-33.571606-0.209778-363.15295-2.142803-32.478715-0.209778c-50.715055 0-82.395592-43.824111-82.395592-82.395592 0-23.277146 0.336668-222.816738 0.3776-275.212062-0.041956-23.235191-47.437405-21.092387-47.437405-21.092387s249.034866-262.102487 306.388109-319.455729c9.033747-10.504238 22.437012-17.143449 37.395702-17.143449 14.663978 0 27.89942 6.42841 36.975123 16.680914 11.68104 12.016685 309.581848 320.04413 309.581848 320.04413S809.627584 512.538259 809.627584 529.386996zM511.985674 513.112334m-122.386398 0a119.599 119.599 0 1 0 244.772796 0 119.599 119.599 0 1 0-244.772796 0ZM702.021821 820.067354c0 19.958564-3.066849 39.201837-8.782014 57.269331-0.86674 2.750647-2.784416 8.1711-2.784416 8.1711l-357.680309-2.113127c0 0-1.853208-5.439896-2.689249-8.200776-5.252631-17.437138-8.109702-35.966143-8.109702-55.126528 0-104.95847 85.042885-190.043311 190.001355-190.043311C616.938004 630.024044 702.021821 715.108884 702.021821 820.067354z" fill="#a9b7b7"></path></g></g></svg>