<?xml version="1.0" standalone="no"?><!DOCTYPE svg PUBLIC "-//W3C//DTD SVG 1.1//EN" "http://www.w3.org/Graphics/SVG/1.1/DTD/svg11.dtd"><svg width="200" height="200" viewBox="0 0 200 200" version="1.1" xmlns="http://www.w3.org/2000/svg" xmlns:xlink="http://www.w3.org/1999/xlink"><defs><style type="text/css"><![CDATA[
@font-face { font-family: ifont; src: url("//at.alicdn.com/t/font_1442373896_4754455.eot?#iefix") format("embedded-opentype"), url("//at.alicdn.com/t/font_1442373896_4754455.woff") format("woff"), url("//at.alicdn.com/t/font_1442373896_4754455.ttf") format("truetype"), url("//at.alicdn.com/t/font_1442373896_4754455.svg#ifont") format("svg"); }

]]></style></defs><g class="transform-group"><g transform="scale(0.1953125, 0.1953125)"><path d="M511.998 576c94.334 0 181.402-82.411 191.162-202.94C713.365 246.947 629.612 128 511.998 128c-117.61 0-201.368 118.947-191.155 245.06C330.599 493.589 417.669 576 511.998 576zM510.289 641.055C299.156 641.055 128 725.014 128 828.584 128 864 160.558 877.651 256.311 888c74.022 8 162.397 8 255.689 8 95.561 0 190.333 0 257.006-8C863.323 876.683 896 864 896 828.584 896 725.014 721.415 641.055 510.289 641.055z" fill="#a9b7b7"></path></g></g></svg>