<?xml version="1.0" standalone="no"?><!DOCTYPE svg PUBLIC "-//W3C//DTD SVG 1.1//EN" "http://www.w3.org/Graphics/SVG/1.1/DTD/svg11.dtd"><svg class="icon" style="" viewBox="0 0 1024 1024" version="1.1" xmlns="http://www.w3.org/2000/svg" p-id="3164" xmlns:xlink="http://www.w3.org/1999/xlink" width="200" height="200"><defs><style type="text/css"><![CDATA[

]]></style></defs><path d="M505.664 862.176c-270.432 0-489.664-279.936-489.664-357.44s219.232-357.472 489.664-357.472c270.432 0 489.664 286.656 489.664 357.472s-219.232 357.44-489.664 357.44zM505.664 699.808c110.816 0 200.64-87.328 200.64-195.072s-89.824-195.072-200.64-195.072c-110.816 0-200.64 87.328-200.64 195.072s89.824 195.072 200.64 195.072z" p-id="3165" fill="#707070"></path><path d="M600.48 504.352c0 50.912-42.432 92.192-94.816 92.192s-94.816-41.28-94.816-92.192c0-50.912 42.432-92.192 94.816-92.192s94.816 41.28 94.816 92.192z" p-id="3166" fill="#707070"></path></svg>